<?xml version="1.0" encoding="utf-8"?>
<!-- Generator: Adobe Illustrator 21.1.0, SVG Export Plug-In . SVG Version: 6.00 Build 0)  -->
<svg version="1.1" xmlns="http://www.w3.org/2000/svg" xmlns:xlink="http://www.w3.org/1999/xlink" x="0px" y="0px"
	 viewBox="0 0 46 45" style="enable-background:new 0 0 46 45;" xml:space="preserve">
<g id="Lager_1">
	<g>
		<path d="M16,14.9c-0.4,0-0.6,0-0.8,0.1c-0.2,0.1-0.3,0.3-0.3,0.5c-0.1,0.2-0.1,0.6-0.1,1.1v5.9h0.9c1.1,0,1.8-0.3,2.2-1
			c0.4-0.7,0.6-1.6,0.6-2.8c0-1.3-0.2-2.2-0.6-2.9S16.9,14.9,16,14.9z"/>
		<path d="M0,0v45h46V18.9V0H0z M21.2,20.5c-0.4,0.7-1,1.2-1.9,1.7s-2.1,0.7-3.5,0.7h-1.1v3.5c0,0.5,0.1,0.9,0.2,1.2
			c0.1,0.2,0.3,0.4,0.6,0.5s0.7,0.1,1.4,0.1v0.4c-1.6,0-2.9-0.1-3.7-0.1c-0.7,0-1.5,0-2.5,0l-0.6,0v-0.4c0.4,0,0.8-0.1,1-0.2
			c0.2-0.1,0.3-0.2,0.4-0.5c0.1-0.2,0.1-0.6,0.1-1.1v-9.9c0-0.5,0-0.9-0.1-1.1c-0.1-0.2-0.2-0.4-0.4-0.5c-0.2-0.1-0.5-0.1-1-0.2
			v-0.4c0.7,0,1.7,0.1,3,0.1l2.2,0c0.3,0,0.6,0,0.9,0c1.8,0,3.2,0.4,4.1,1.1c0.9,0.7,1.4,1.7,1.4,2.9C21.8,19.1,21.6,19.8,21.2,20.5
			z M36.6,28.6c-0.9,0-2-0.1-3.1-0.1c-0.9,0-1.7,0-2.5,0.1v-0.4c0.4,0,0.6-0.1,0.8-0.1c0.2-0.1,0.2-0.1,0.2-0.3
			c0-0.1-0.1-0.3-0.2-0.5l-2.9-4.7c-0.3-0.4-0.5-0.7-0.7-0.9c-0.2-0.1-0.4-0.2-0.7-0.3v5c0,0.5,0,0.9,0.1,1.1S27.8,28,28,28
			s0.5,0.1,1,0.2v0.4c-0.7,0-1.7-0.1-3-0.1c-1.4,0-2.5,0-3.2,0.1v-0.4c0.4,0,0.8-0.1,1-0.2c0.2-0.1,0.3-0.2,0.4-0.5
			c0.1-0.2,0.1-0.6,0.1-1.1v-9.9c0-0.5,0-0.9-0.1-1.1c-0.1-0.2-0.2-0.4-0.4-0.5c-0.2-0.1-0.5-0.1-1-0.2v-0.4c0.7,0,1.7,0.1,3.2,0.1
			c1.3,0,2.3,0,3-0.1v0.4c-0.5,0-0.8,0.1-1,0.2s-0.3,0.2-0.4,0.5c-0.1,0.2-0.1,0.6-0.1,1.1v4.5c0.5,0,1-0.2,1.5-0.5
			c0.4-0.3,0.9-0.8,1.5-1.4l1.2-1.4c0.6-0.7,0.9-1.3,0.9-1.9c0-0.3-0.1-0.6-0.4-0.8c-0.3-0.2-0.6-0.3-1.1-0.3v-0.4c1,0,2,0.1,3,0.1
			c0.8,0,1.4,0,1.9-0.1v0.4c-1.1,0.3-2,0.9-2.9,1.9l-2.5,3l4.7,7.3c0.2,0.3,0.4,0.6,0.6,0.7c0.2,0.2,0.5,0.3,0.8,0.5V28.6z"/>
	</g>
</g>
<g id="Lager_2">
</g>
</svg>
